HIERARCHY
ROOT Hips
{
	OFFSET 0.000000 83.214638 0.000000
	CHANNELS 6 Xposition Yposition Zposition Xrotation Yrotation Zrotation
	JOINT Pelvis
	{
		OFFSET 0.000000 0.000000 0.000000
		CHANNELS 3 Xrotation Yrotation Zrotation
		JOINT LeftUpLeg
		{
			OFFSET 8.479700 -4.795502 -0.379100
			CHANNELS 3 Xrotation Yrotation Zrotation
			JOINT LeftLeg
			{
				OFFSET 0.024144 -32.555107 0.112900
				CHANNELS 3 Xrotation Yrotation Zrotation
				JOINT LeftFoot
				{
					OFFSET -0.024144 -32.638630 -3.012600
					CHANNELS 3 Xrotation Yrotation Zrotation
					JOINT LeftToeBase
					{
						OFFSET 0.970200 -13.225400 11.864200
						CHANNELS 3 Xrotation Yrotation Zrotation
						End Site
						{
							OFFSET 0.000000 12.319262 0.000000
						}
					}
					JOINT LFootTongue
					{
						OFFSET 1.142400 -1.059800 6.665200
						CHANNELS 3 Xrotation Yrotation Zrotation
						End Site
						{
							OFFSET 0.000000 12.319262 0.000000
						}
					}
				}
				JOINT LeftPantLeg
				{
					OFFSET 0.918482 -16.533964 -2.284700
					CHANNELS 3 Xrotation Yrotation Zrotation
					End Site
					{
						OFFSET 0.350399 24.744368 0.000000
					}
				}
			}
		}
		JOINT RightUpLeg
		{
			OFFSET -8.479700 -4.795502 -0.379100
			CHANNELS 3 Xrotation Yrotation Zrotation
			JOINT RightLeg
			{
				OFFSET -0.023144 -32.555092 0.112900
				CHANNELS 3 Xrotation Yrotation Zrotation
				JOINT RightFoot
				{
					OFFSET 0.023144 -32.638641 -3.012700
					CHANNELS 3 Xrotation Yrotation Zrotation
					JOINT RightToeBase
					{
						OFFSET -0.970200 -13.225400 11.864200
						CHANNELS 3 Xrotation Yrotation Zrotation
						End Site
						{
							OFFSET 0.000000 12.319244 0.000000
						}
					}
					JOINT RFootTongue
					{
						OFFSET -1.142200 -1.059800 6.665200
						CHANNELS 3 Xrotation Yrotation Zrotation
						End Site
						{
							OFFSET 0.000000 12.319243 0.000000
						}
					}
				}
				JOINT RightPantLeg
				{
					OFFSET -0.919482 -16.533978 -2.284800
					CHANNELS 3 Xrotation Yrotation Zrotation
					End Site
					{
						OFFSET -0.350400 24.744419 0.000000
					}
				}
			}
		}
	}
	JOINT Spine
	{
		OFFSET 0.000000 7.722000 1.166200
		CHANNELS 3 Xrotation Yrotation Zrotation
		JOINT Spine1
		{
			OFFSET 0.000000 12.024101 0.248800
			CHANNELS 3 Xrotation Yrotation Zrotation
			JOINT Spine2
			{
				OFFSET 0.000000 11.502998 -0.491200
				CHANNELS 3 Xrotation Yrotation Zrotation
				JOINT Neck
				{
					OFFSET 0.000000 18.430702 -3.123100
					CHANNELS 3 Xrotation Yrotation Zrotation
					JOINT Head
					{
						OFFSET 0.000000 9.051102 1.034000
						CHANNELS 3 Xrotation Yrotation Zrotation
						JOINT HairB
						{
							OFFSET 0.208400 24.786102 24.822300
							CHANNELS 3 Xrotation Yrotation Zrotation
							End Site
							{
								OFFSET 0.000000 32.263779 0.000000
							}
						}
						JOINT HairA
						{
							OFFSET -7.081100 24.428299 23.196600
							CHANNELS 3 Xrotation Yrotation Zrotation
							End Site
							{
								OFFSET 0.000000 32.263779 0.000000
							}
						}
						JOINT Hat
						{
							OFFSET 16.728800 15.048294 -15.439601
							CHANNELS 3 Xrotation Yrotation Zrotation
							End Site
							{
								OFFSET 0.000000 32.263779 0.000000
							}
						}
					}
				}
				JOINT LeftShoulder
				{
					OFFSET 6.197800 13.665199 -4.064700
					CHANNELS 3 Xrotation Yrotation Zrotation
					JOINT LeftArm
					{
						OFFSET 7.778100 -0.187103 -1.709300
						CHANNELS 3 Xrotation Yrotation Zrotation
						JOINT LeftForeArm
						{
							OFFSET 22.049376 0.000000 0.000000
							CHANNELS 3 Xrotation Yrotation Zrotation
							JOINT LeftHand
							{
								OFFSET 23.009392 0.000000 0.000000
								CHANNELS 3 Xrotation Yrotation Zrotation
								JOINT LeftHandThumb1
								{
									OFFSET 3.507191 -2.063065 3.133727
									CHANNELS 3 Xrotation Yrotation Zrotation
									JOINT LeftHandThumb2
									{
										OFFSET 3.101337 -1.790558 1.790558
										CHANNELS 3 Xrotation Yrotation Zrotation
										JOINT LeftHandThumb3
										{
											OFFSET 3.058640 -1.765907 1.765906
											CHANNELS 3 Xrotation Yrotation Zrotation
											End Site
											{
												OFFSET -0.415260 3.926476 -0.049563
											}
										}
									}
								}
								JOINT LeftHandIndex1
								{
									OFFSET 11.334419 -0.901459 3.706815
									CHANNELS 3 Xrotation Yrotation Zrotation
									JOINT LeftHandIndex2
									{
										OFFSET 3.283112 0.000000 0.000000
										CHANNELS 3 Xrotation Yrotation Zrotation
										JOINT LeftHandIndex3
										{
											OFFSET 3.323853 0.000000 0.000000
											CHANNELS 3 Xrotation Yrotation Zrotation
											End Site
											{
												OFFSET -1.135597 3.097809 0.402452
											}
										}
									}
								}
								JOINT LeftHandMiddle1
								{
									OFFSET 11.335861 0.000000 0.000000
									CHANNELS 3 Xrotation Yrotation Zrotation
									JOINT LeftHandMiddle2
									{
										OFFSET 3.410492 0.000000 0.000000
										CHANNELS 3 Xrotation Yrotation Zrotation
										JOINT LeftHandMiddle3
										{
											OFFSET 3.312172 0.000000 0.000000
											CHANNELS 3 Xrotation Yrotation Zrotation
											End Site
											{
												OFFSET -1.150200 3.080154 0.400270
											}
										}
									}
								}
								JOINT LeftHandRing1
								{
									OFFSET 11.514786 -0.013176 -3.003090
									CHANNELS 3 Xrotation Yrotation Zrotation
									JOINT LeftHandRing2
									{
										OFFSET 3.053307 0.000000 0.000000
										CHANNELS 3 Xrotation Yrotation Zrotation
										JOINT LeftHandRing3
										{
											OFFSET 3.295807 0.000000 0.000000
											CHANNELS 3 Xrotation Yrotation Zrotation
											End Site
											{
												OFFSET -1.281006 3.013344 0.375733
											}
										}
									}
								}
								JOINT LeftHandPinky1
								{
									OFFSET 10.518692 -0.960396 -5.730441
									CHANNELS 3 Xrotation Yrotation Zrotation
									JOINT LeftHandPinky2
									{
										OFFSET 2.861649 0.000000 0.000000
										CHANNELS 3 Xrotation Yrotation Zrotation
										JOINT LeftHandPinky3
										{
											OFFSET 2.863380 0.000000 0.000000
											CHANNELS 3 Xrotation Yrotation Zrotation
											End Site
											{
												OFFSET -0.843597 2.711159 0.369971
											}
										}
									}
								}
							}
							JOINT LSleeve
							{
								OFFSET 6.676277 -0.344902 -1.011730
								CHANNELS 3 Xrotation Yrotation Zrotation
								End Site
								{
									OFFSET 0.000000 14.885353 0.000000
								}
							}
						}
					}
				}
				JOINT RightShoulder
				{
					OFFSET -6.197800 13.665199 -4.064700
					CHANNELS 3 Xrotation Yrotation Zrotation
					JOINT RightArm
					{
						OFFSET -7.778100 -0.187103 -1.709300
						CHANNELS 3 Xrotation Yrotation Zrotation
						JOINT RightForeArm
						{
							OFFSET -22.049376 0.000000 0.000000
							CHANNELS 3 Xrotation Yrotation Zrotation
							JOINT RightHand
							{
								OFFSET -23.009392 0.000000 0.000000
								CHANNELS 3 Xrotation Yrotation Zrotation
								JOINT RightHandThumb1
								{
									OFFSET -3.507191 -2.063065 3.133727
									CHANNELS 3 Xrotation Yrotation Zrotation
									JOINT RightHandThumb2
									{
										OFFSET -3.101337 -1.790558 1.790558
										CHANNELS 3 Xrotation Yrotation Zrotation
										JOINT RightHandThumb3
										{
											OFFSET -3.058640 -1.765907 1.765906
											CHANNELS 3 Xrotation Yrotation Zrotation
											End Site
											{
												OFFSET 0.415260 3.926476 -0.049563
											}
										}
									}
								}
								JOINT RightHandIndex1
								{
									OFFSET -11.334419 -0.901459 3.706815
									CHANNELS 3 Xrotation Yrotation Zrotation
									JOINT RightHandIndex2
									{
										OFFSET -3.283112 0.000000 0.000000
										CHANNELS 3 Xrotation Yrotation Zrotation
										JOINT RightHandIndex3
										{
											OFFSET -3.323853 0.000000 0.000000
											CHANNELS 3 Xrotation Yrotation Zrotation
											End Site
											{
												OFFSET 1.135597 3.097809 0.402452
											}
										}
									}
								}
								JOINT RightHandMiddle1
								{
									OFFSET -11.335861 0.000000 0.000000
									CHANNELS 3 Xrotation Yrotation Zrotation
									JOINT RightHandMiddle2
									{
										OFFSET -3.410492 0.000000 0.000000
										CHANNELS 3 Xrotation Yrotation Zrotation
										JOINT RightHandMiddle3
										{
											OFFSET -3.312172 0.000000 0.000000
											CHANNELS 3 Xrotation Yrotation Zrotation
											End Site
											{
												OFFSET 1.150200 3.080154 0.400270
											}
										}
									}
								}
								JOINT RightHandRing1
								{
									OFFSET -11.514786 -0.013176 -3.003090
									CHANNELS 3 Xrotation Yrotation Zrotation
									JOINT RightHandRing2
									{
										OFFSET -3.053307 0.000000 0.000000
										CHANNELS 3 Xrotation Yrotation Zrotation
										JOINT RightHandRing3
										{
											OFFSET -3.295807 0.000000 0.000000
											CHANNELS 3 Xrotation Yrotation Zrotation
											End Site
											{
												OFFSET 1.281006 3.013344 0.375733
											}
										}
									}
								}
								JOINT RightHandPinky1
								{
									OFFSET -10.518692 -0.960396 -5.730441
									CHANNELS 3 Xrotation Yrotation Zrotation
									JOINT RightHandPinky2
									{
										OFFSET -2.861649 0.000000 0.000000
										CHANNELS 3 Xrotation Yrotation Zrotation
										JOINT RightHandPinky3
										{
											OFFSET -2.863380 0.000000 0.000000
											CHANNELS 3 Xrotation Yrotation Zrotation
											End Site
											{
												OFFSET 0.843597 2.711159 0.369971
											}
										}
									}
								}
							}
							JOINT RSleeve
							{
								OFFSET -6.676277 -0.344902 -1.011730
								CHANNELS 3 Xrotation Yrotation Zrotation
								End Site
								{
									OFFSET 0.000000 14.885353 0.000000
								}
							}
						}
					}
				}
				JOINT Backpack
				{
					OFFSET 0.000000 -2.471497 36.677502
					CHANNELS 3 Xrotation Yrotation Zrotation
					End Site
					{
						OFFSET 0.000000 20.427315 0.000000
					}
				}
				JOINT Hood
				{
					OFFSET 0.000000 18.754097 -10.431000
					CHANNELS 3 Xrotation Yrotation Zrotation
					JOINT Hood1
					{
						OFFSET 0.000000 -5.011002 -7.685901
						CHANNELS 3 Xrotation Yrotation Zrotation
						End Site
						{
							OFFSET 0.000000 9.175140 0.000000
						}
					}
				}
				JOINT LHoodieString
				{
					OFFSET 5.250500 16.397697 3.089900
					CHANNELS 3 Xrotation Yrotation Zrotation
					JOINT LHoodieString1
					{
						OFFSET 0.257700 -6.364304 3.694600
						CHANNELS 3 Xrotation Yrotation Zrotation
						JOINT LHoodieString2
						{
							OFFSET 0.000000 -9.643799 2.679100
							CHANNELS 3 Xrotation Yrotation Zrotation
							End Site
							{
								OFFSET 0.000000 10.009018 0.000000
							}
						}
					}
				}
				JOINT RHoodieString
				{
					OFFSET -5.250500 16.397697 3.089900
					CHANNELS 3 Xrotation Yrotation Zrotation
					JOINT RHoodieString1
					{
						OFFSET -0.257700 -6.364304 3.694600
						CHANNELS 3 Xrotation Yrotation Zrotation
						JOINT RHoodieString2
						{
							OFFSET 0.000000 -9.643799 2.679100
							CHANNELS 3 Xrotation Yrotation Zrotation
							End Site
							{
								OFFSET 0.000000 10.009018 0.000000
							}
						}
					}
				}
			}
			JOINT LBackpack_Strap
			{
				OFFSET 15.223200 -7.719803 -6.610900
				CHANNELS 3 Xrotation Yrotation Zrotation
				End Site
				{
					OFFSET 0.000000 16.040596 0.000000
				}
			}
			JOINT RBackpack_Strap
			{
				OFFSET -15.223000 -7.719803 -6.610900
				CHANNELS 3 Xrotation Yrotation Zrotation
				End Site
				{
					OFFSET 0.000000 16.040596 0.000000
				}
			}
		}
	}
	JOINT BoyFacialAnim_Joint
	{
		OFFSET 1.000000 -82.208099 -1.550900
		CHANNELS 3 Xrotation Yrotation Zrotation
		End Site
		{
			OFFSET 0.000000 30.012791 0.000000
		}
	}
}
MOTION
Frames: 4
Frame Time: 0.033333
0.122360 71.905945 0.231067 -1.888580 -48.513601 -0.194237 0.000000 -0.000002 -0.000000 -14.683810 -0.922469 16.281718 65.157320 -1.116652 9.846215 19.886091 -1.933882 13.562696 0.000001 -0.000000 0.000001 0.000001 -0.000000 0.000001 -0.000001 -0.000001 0.000000 -50.728966 -12.581045 -23.501294 40.178178 8.157345 6.189165 8.904173 -18.117159 1.132761 0.000000 0.000000 -0.000000 0.000000 0.000000 -0.000000 -0.000000 0.000002 0.000000 1.589632 1.367541 2.000471 3.102959 2.401408 0.601391 3.096378 2.408711 0.605301 12.097103 6.009098 -1.574053 -4.471010 31.207691 1.411353 0.000000 -0.000000 0.000000 0.000000 -0.000000 0.000000 0.000000 -0.000000 0.000000 0.681676 -10.226654 -8.466907 -44.630686 -20.650179 -41.996402 -0.000023 -63.459875 -0.000021 -115.535696 -4.518630 15.462865 -0.329779 -15.770038 7.158040 3.939055 7.948704 0.746813 -0.000002 -0.000001 -0.000001 0.460899 2.481210 -21.042816 0.460886 2.481184 -21.042807 -0.000002 -0.000001 -0.000004 0.460200 2.479401 -21.026807 0.461581 2.482997 -21.058834 -0.000001 0.000001 -0.000001 0.541882 2.682046 -22.840747 0.541877 2.682032 -22.840745 -0.000003 0.000002 -0.000003 2.453794 6.666644 -25.490083 0.699378 -1.047983 -26.312682 0.000001 0.000000 -0.000000 -0.000000 0.000000 0.000001 3.279318 28.421076 7.396683 -58.076607 30.724769 71.812274 -0.000071 77.812753 0.000061 -36.958133 -33.710726 0.279621 24.742862 -13.971812 11.207080 7.335579 -24.090801 -5.399704 -0.000001 0.000001 -0.000000 0.145430 10.767190 -0.131854 4.502380 -6.505505 69.343332 -0.000001 -0.000001 0.000005 5.893964 -6.868191 81.251678 5.893965 -6.868186 81.251684 0.000001 0.000001 -0.000000 5.893959 -6.868181 81.251678 5.893974 -6.868184 81.251684 -0.000000 0.000001 0.000000 5.893963 -6.868150 81.251678 5.893968 -6.868190 81.251691 0.000001 -0.000001 0.000000 0.000000 -0.000003 0.000002 0.000001 0.000001 -0.000000 0.000001 0.000001 -0.000000 0.000001 0.000001 -0.000000 0.000001 0.000001 -0.000000 0.000001 0.000001 -0.000000 0.000000 0.000001 0.000001 0.000001 0.000001 -0.000000 0.000001 0.000001 -0.000000 0.000000 0.000001 0.000001 -0.000000 0.000000 -0.000000 -0.000000 0.000000 -0.000000 0.000000 -0.000002 -0.000000 
-4.684648 71.931778 -0.260830 -2.706684 -50.192905 -2.229005 0.000000 0.000003 0.000000 -20.239273 -4.137422 16.019377 74.017770 -1.498632 9.660476 23.561788 -4.985308 15.227384 -0.000001 0.000001 -0.000001 -0.000001 0.000001 -0.000001 -0.000000 0.000006 -0.000006 -50.246044 -16.065076 -21.113199 46.335764 7.064161 6.613919 2.289773 -14.348732 -5.023406 0.000000 0.000000 0.000000 0.000000 0.000000 0.000000 0.000001 0.000001 0.000000 1.683336 1.696730 2.313945 3.365350 2.676043 0.597877 3.361489 2.679816 0.601337 12.005517 6.059775 -1.062166 -4.861122 31.639209 1.929288 0.000001 0.000000 0.000000 0.000001 0.000000 0.000000 0.000001 0.000000 0.000000 0.691897 -10.120789 -8.160425 -44.841855 -20.974469 -42.032332 -0.000052 -63.047598 -0.000065 -115.576035 -4.523653 15.453856 -0.329781 -15.770046 7.158045 3.939053 7.948702 0.746813 0.000001 -0.000001 0.000001 0.460897 2.481203 -21.042812 0.460890 2.481187 -21.042805 -0.000003 0.000001 -0.000003 0.460201 2.479396 -21.026804 0.461583 2.483001 -21.058834 0.000003 -0.000000 0.000000 0.541885 2.682042 -22.840749 0.541880 2.682026 -22.840747 0.000001 -0.000001 -0.000004 2.453791 6.666638 -25.490082 0.699384 -1.047982 -26.312686 0.000002 -0.000002 0.000003 0.000002 0.000001 0.000002 3.434274 28.849425 7.596905 -58.213989 30.120349 71.846186 -0.000099 77.902515 0.000114 -37.544385 -33.556340 -0.082241 24.742861 -13.971813 11.207081 7.335580 -24.090799 -5.399706 -0.000002 0.000003 0.000000 0.145430 10.767188 -0.131853 4.502380 -6.505506 69.343332 -0.000001 0.000000 0.000005 5.893964 -6.868194 81.251678 5.893964 -6.868187 81.251684 0.000000 0.000001 -0.000000 5.893960 -6.868184 81.251684 5.893974 -6.868186 81.251684 -0.000000 -0.000000 0.000004 5.893963 -6.868154 81.251678 5.893971 -6.868192 81.251684 0.000000 -0.000000 0.000002 0.000003 0.000001 0.000001 0.000001 -0.000000 -0.000000 0.000001 -0.000000 -0.000000 0.000001 -0.000000 -0.000000 0.000001 -0.000000 -0.000000 0.000001 -0.000000 -0.000000 0.000000 -0.000000 -0.000000 0.000001 -0.000000 -0.000000 0.000001 -0.000000 -0.000000 0.000000 -0.000000 -0.000000 0.000000 0.000000 -0.000000 0.000000 0.000000 -0.000000 0.000000 0.000003 0.000000 
-9.233858 72.093704 -0.745695 -3.602788 -52.297758 -4.048136 0.000000 0.000000 0.000000 -25.938588 -5.368472 14.098265 81.475325 -1.638508 9.804415 20.091474 -7.233535 15.497940 0.000000 -0.000003 -0.000000 0.000000 -0.000003 0.000000 -0.000003 0.000001 0.000003 -48.641657 -17.966355 -17.960848 51.168263 6.920099 6.681560 -2.443618 -12.085006 -7.549559 0.000000 0.000000 0.000000 0.000000 0.000000 0.000000 0.000000 0.000000 0.000001 1.881369 1.937451 2.864293 3.723665 3.036535 0.549453 3.712949 3.047806 0.556386 12.231686 6.073354 -0.425546 -5.175663 32.212876 2.126429 0.000001 0.000000 0.000000 0.000001 0.000000 0.000000 0.000001 0.000000 0.000000 0.706549 -10.101978 -7.783110 -44.748206 -20.691411 -41.838993 0.000019 -62.939988 0.000009 -115.439076 -4.495976 15.500045 -0.329779 -15.770039 7.158041 3.939053 7.948703 0.746813 -0.000000 -0.000003 0.000002 0.460899 2.481205 -21.042816 0.460889 2.481185 -21.042809 -0.000001 0.000000 -0.000005 0.460201 2.479397 -21.026806 0.461585 2.482995 -21.058834 -0.000002 0.000001 0.000004 0.541886 2.682044 -22.840749 0.541881 2.682032 -22.840743 -0.000003 0.000004 -0.000001 2.453795 6.666639 -25.490078 0.699381 -1.047983 -26.312689 -0.000002 0.000001 -0.000000 -0.000001 -0.000000 -0.000002 3.802618 29.991111 7.933161 -58.201060 28.984287 71.993725 0.000085 77.986110 -0.000074 -39.045886 -33.178409 -0.974811 24.742861 -13.971811 11.207081 7.335580 -24.090801 -5.399703 -0.000003 0.000002 0.000000 0.145430 10.767189 -0.131856 4.502380 -6.505508 69.343332 -0.000001 0.000001 0.000002 5.893964 -6.868193 81.251678 5.893965 -6.868186 81.251691 0.000000 0.000000 -0.000000 5.893958 -6.868182 81.251684 5.893972 -6.868186 81.251684 -0.000001 -0.000000 0.000000 5.893963 -6.868153 81.251671 5.893969 -6.868191 81.251684 0.000000 0.000000 -0.000003 0.000002 0.000001 0.000000 0.000001 -0.000001 -0.000000 0.000001 -0.000001 -0.000000 0.000001 -0.000001 -0.000000 0.000001 -0.000001 -0.000000 0.000001 -0.000001 -0.000000 -0.000000 -0.000001 0.000000 0.000001 -0.000001 -0.000000 0.000001 -0.000001 -0.000000 -0.000000 -0.000001 0.000000 0.000001 0.000001 -0.000000 0.000001 0.000001 -0.000000 0.000000 0.000000 0.000000 
-13.559111 72.213715 -1.141583 -4.561243 -54.521719 -5.745516 -0.000000 0.000000 -0.000000 -31.863420 -4.637335 10.920948 86.455688 -0.478154 10.009003 13.060474 -5.267378 15.465077 -0.000001 0.000000 -0.000000 -0.000001 0.000000 -0.000000 0.000002 0.000002 0.000001 -46.147043 -19.449536 -14.510452 54.787574 6.913375 6.639640 -6.610488 -10.124891 -9.719330 0.000000 -0.000001 -0.000000 0.000000 -0.000001 -0.000000 0.000000 -0.000003 0.000001 2.126060 2.059073 3.724953 4.130754 3.404030 0.509203 4.105744 3.431501 0.521304 12.651547 6.094682 0.010399 -5.418687 32.873960 2.018185 0.000000 0.000000 0.000001 0.000000 0.000000 0.000001 0.000000 0.000000 0.000001 0.712333 -9.981078 -7.599209 -44.534346 -19.908833 -41.479787 0.000012 -63.216112 0.000006 -115.375774 -4.483245 15.522042 -0.329780 -15.770036 7.158044 3.939048 7.948701 0.746813 -0.000002 -0.000000 -0.000001 0.460895 2.481207 -21.042814 0.460884 2.481190 -21.042811 -0.000002 0.000002 -0.000007 0.460198 2.479397 -21.026806 0.461585 2.482997 -21.058832 0.000001 -0.000001 -0.000002 0.541884 2.682047 -22.840750 0.541880 2.682033 -22.840749 -0.000001 0.000004 -0.000003 2.453791 6.666640 -25.490080 0.699381 -1.047983 -26.312686 -0.000003 0.000001 -0.000002 -0.000000 0.000000 0.000003 4.271283 31.580544 8.257361 -58.284743 27.820366 72.269241 0.000251 78.032657 -0.000239 -40.640100 -32.735638 -1.884007 24.742861 -13.971812 11.207081 7.335579 -24.090803 -5.399705 -0.000002 0.000003 -0.000001 0.145430 10.767189 -0.131853 4.502378 -6.505509 69.343332 -0.000002 0.000001 0.000002 5.893963 -6.868193 81.251678 5.893966 -6.868190 81.251684 -0.000001 0.000000 -0.000000 5.893958 -6.868182 81.251684 5.893972 -6.868186 81.251678 0.000001 -0.000001 0.000000 5.893962 -6.868153 81.251678 5.893970 -6.868189 81.251684 0.000001 0.000000 -0.000003 0.000000 0.000000 -0.000000 -0.000001 -0.000003 0.000000 -0.000001 -0.000003 0.000000 -0.000001 -0.000003 0.000000 -0.000001 -0.000003 0.000000 -0.000001 -0.000003 -0.000000 -0.000001 0.000001 0.000000 -0.000001 -0.000003 0.000000 -0.000001 -0.000003 -0.000000 -0.000001 0.000001 0.000000 -0.000000 -0.000001 0.000000 -0.000000 -0.000001 0.000000 -0.000000 0.000000 -0.000000 
